# xmcd
#
# Track frame offsets:
#	183
#	23205
#	39525
#	60275
#	83530
#	106533
#	123553
#	142868
#	162468
#	180805
#	201455
#
# Disc length: 3084 seconds
#
# Revision: 1
# Processed by: cddbd v1.4b42PL0 Copyright (c) Steve Scherf et al.
# Submitted via: audiograbber 1.80
#
DISCID=800c0a0b
DTITLE=Strange Nature - World Song
DYEAR=1900
DGENRE=
TTITLE0=New Messiah
TTITLE1=People
TTITLE2=Incantation Man
TTITLE3=Innocence
TTITLE4=Too Bad
TTITLE5=Compliments of the Earth
TTITLE6=Alive on You
TTITLE7=Abandoned
TTITLE8=Gone
TTITLE9=Walking on the Skies
TTITLE10=World Song
EXTD=
EXTT0=
EXTT1=
EXTT2=
EXTT3=
EXTT4=
EXTT5=
EXTT6=
EXTT7=
EXTT8=
EXTT9=
EXTT10=
PLAYORDER=
